<mxfile host="app.diagrams.net" modified="2021-09-20T21:08:08.345Z" agent="5.0 (Macintosh; Intel Mac OS X 10_15_7) AppleWebKit/537.36 (KHTML, like Gecko) Chrome/93.0.4577.63 Safari/537.36" etag="0vO5lMnd3xu2rFC4jHtl" version="15.2.9" type="github">
  <diagram id="C5RBs43oDa-KdzZeNtuy" name="Page-1">
    <mxGraphModel dx="1064" dy="584" grid="1" gridSize="10" guides="1" tooltips="1" connect="1" arrows="1" fold="1" page="1" pageScale="1" pageWidth="827" pageHeight="1169" math="0" shadow="0">
      <root>
        <mxCell id="WIyWlLk6GJQsqaUBKTNV-0" />
        <mxCell id="WIyWlLk6GJQsqaUBKTNV-1" parent="WIyWlLk6GJQsqaUBKTNV-0" />
        <mxCell id="WIyWlLk6GJQsqaUBKTNV-2" value="" style="rounded=0;html=1;jettySize=auto;orthogonalLoop=1;fontSize=11;endArrow=blockThin;endFill=1;endSize=8;strokeWidth=1;shadow=0;labelBackgroundColor=none;edgeStyle=orthogonalEdgeStyle;" parent="WIyWlLk6GJQsqaUBKTNV-1" source="WIyWlLk6GJQsqaUBKTNV-3" edge="1">
          <mxGeometry relative="1" as="geometry">
            <mxPoint x="220" y="170" as="targetPoint" />
          </mxGeometry>
        </mxCell>
        <mxCell id="WIyWlLk6GJQsqaUBKTNV-3" value="研究背景" style="rounded=1;whiteSpace=wrap;html=1;fontSize=12;glass=0;strokeWidth=1;shadow=0;" parent="WIyWlLk6GJQsqaUBKTNV-1" vertex="1">
          <mxGeometry x="160" y="80" width="120" height="40" as="geometry" />
        </mxCell>
        <mxCell id="WIyWlLk6GJQsqaUBKTNV-7" value="提出问题" style="rounded=1;whiteSpace=wrap;html=1;fontSize=12;glass=0;strokeWidth=1;shadow=0;" parent="WIyWlLk6GJQsqaUBKTNV-1" vertex="1">
          <mxGeometry x="520" y="80" width="120" height="40" as="geometry" />
        </mxCell>
        <mxCell id="nxJLiq8hY2xZPoSbCBGd-12" value="" style="edgeStyle=orthogonalEdgeStyle;rounded=0;orthogonalLoop=1;jettySize=auto;html=1;endArrow=blockThin;endFill=1;strokeWidth=1;" parent="WIyWlLk6GJQsqaUBKTNV-1" source="nxJLiq8hY2xZPoSbCBGd-0" edge="1">
          <mxGeometry relative="1" as="geometry">
            <mxPoint x="220" y="240" as="targetPoint" />
          </mxGeometry>
        </mxCell>
        <mxCell id="nxJLiq8hY2xZPoSbCBGd-0" value="信息可视化" style="rounded=1;whiteSpace=wrap;html=1;fontSize=12;glass=0;strokeWidth=1;shadow=0;" parent="WIyWlLk6GJQsqaUBKTNV-1" vertex="1">
          <mxGeometry x="160" y="170" width="120" height="40" as="geometry" />
        </mxCell>
        <mxCell id="nxJLiq8hY2xZPoSbCBGd-1" value="" style="endArrow=none;dashed=1;html=1;strokeWidth=2;" parent="WIyWlLk6GJQsqaUBKTNV-1" edge="1">
          <mxGeometry width="50" height="50" relative="1" as="geometry">
            <mxPoint x="40" y="140" as="sourcePoint" />
            <mxPoint x="400" y="140" as="targetPoint" />
          </mxGeometry>
        </mxCell>
        <mxCell id="nxJLiq8hY2xZPoSbCBGd-2" value="" style="shape=flexArrow;endArrow=classic;html=1;strokeWidth=1;" parent="WIyWlLk6GJQsqaUBKTNV-1" edge="1">
          <mxGeometry width="50" height="50" relative="1" as="geometry">
            <mxPoint x="400" y="99.5" as="sourcePoint" />
            <mxPoint x="460" y="99.5" as="targetPoint" />
          </mxGeometry>
        </mxCell>
        <mxCell id="nxJLiq8hY2xZPoSbCBGd-3" value="分析问题" style="rounded=1;whiteSpace=wrap;html=1;fontSize=12;glass=0;strokeWidth=1;shadow=0;" parent="WIyWlLk6GJQsqaUBKTNV-1" vertex="1">
          <mxGeometry x="520" y="170" width="120" height="40" as="geometry" />
        </mxCell>
        <mxCell id="nxJLiq8hY2xZPoSbCBGd-4" value="" style="shape=flexArrow;endArrow=classic;html=1;strokeWidth=1;" parent="WIyWlLk6GJQsqaUBKTNV-1" edge="1">
          <mxGeometry width="50" height="50" relative="1" as="geometry">
            <mxPoint x="400" y="189.5" as="sourcePoint" />
            <mxPoint x="460" y="189.5" as="targetPoint" />
          </mxGeometry>
        </mxCell>
        <mxCell id="nxJLiq8hY2xZPoSbCBGd-5" value="建模分析" style="rounded=1;whiteSpace=wrap;html=1;fontSize=12;glass=0;strokeWidth=1;shadow=0;" parent="WIyWlLk6GJQsqaUBKTNV-1" vertex="1">
          <mxGeometry x="520" y="341" width="120" height="40" as="geometry" />
        </mxCell>
        <mxCell id="nxJLiq8hY2xZPoSbCBGd-6" value="" style="shape=flexArrow;endArrow=classic;html=1;strokeWidth=1;" parent="WIyWlLk6GJQsqaUBKTNV-1" edge="1">
          <mxGeometry width="50" height="50" relative="1" as="geometry">
            <mxPoint x="400" y="360.5" as="sourcePoint" />
            <mxPoint x="460" y="360.5" as="targetPoint" />
          </mxGeometry>
        </mxCell>
        <mxCell id="nxJLiq8hY2xZPoSbCBGd-7" value="结论展望" style="rounded=1;whiteSpace=wrap;html=1;fontSize=12;glass=0;strokeWidth=1;shadow=0;" parent="WIyWlLk6GJQsqaUBKTNV-1" vertex="1">
          <mxGeometry x="520" y="650" width="120" height="40" as="geometry" />
        </mxCell>
        <mxCell id="nxJLiq8hY2xZPoSbCBGd-8" value="" style="shape=flexArrow;endArrow=classic;html=1;strokeWidth=1;" parent="WIyWlLk6GJQsqaUBKTNV-1" edge="1">
          <mxGeometry width="50" height="50" relative="1" as="geometry">
            <mxPoint x="400" y="669.5" as="sourcePoint" />
            <mxPoint x="460" y="669.5" as="targetPoint" />
          </mxGeometry>
        </mxCell>
        <mxCell id="nxJLiq8hY2xZPoSbCBGd-16" value="" style="edgeStyle=orthogonalEdgeStyle;rounded=0;orthogonalLoop=1;jettySize=auto;html=1;endArrow=blockThin;endFill=1;strokeWidth=1;" parent="WIyWlLk6GJQsqaUBKTNV-1" source="nxJLiq8hY2xZPoSbCBGd-13" target="nxJLiq8hY2xZPoSbCBGd-15" edge="1">
          <mxGeometry relative="1" as="geometry" />
        </mxCell>
        <mxCell id="nxJLiq8hY2xZPoSbCBGd-13" value="中国知网" style="rounded=1;whiteSpace=wrap;html=1;fontSize=12;glass=0;strokeWidth=1;shadow=0;" parent="WIyWlLk6GJQsqaUBKTNV-1" vertex="1">
          <mxGeometry x="160" y="241" width="120" height="40" as="geometry" />
        </mxCell>
        <mxCell id="nxJLiq8hY2xZPoSbCBGd-18" value="" style="edgeStyle=orthogonalEdgeStyle;rounded=0;orthogonalLoop=1;jettySize=auto;html=1;endArrow=blockThin;endFill=1;strokeWidth=1;" parent="WIyWlLk6GJQsqaUBKTNV-1" source="nxJLiq8hY2xZPoSbCBGd-15" edge="1">
          <mxGeometry relative="1" as="geometry">
            <mxPoint x="220" y="401" as="targetPoint" />
          </mxGeometry>
        </mxCell>
        <mxCell id="nxJLiq8hY2xZPoSbCBGd-15" value="数据获取与预处理" style="rounded=1;whiteSpace=wrap;html=1;fontSize=12;glass=0;strokeWidth=1;shadow=0;" parent="WIyWlLk6GJQsqaUBKTNV-1" vertex="1">
          <mxGeometry x="160" y="321" width="120" height="40" as="geometry" />
        </mxCell>
        <mxCell id="S72kUEGjU9h2DheE2nI9-0" value="" style="edgeStyle=orthogonalEdgeStyle;rounded=0;orthogonalLoop=1;jettySize=auto;html=1;endArrow=none;endFill=0;" edge="1" parent="WIyWlLk6GJQsqaUBKTNV-1" source="nxJLiq8hY2xZPoSbCBGd-19" target="nxJLiq8hY2xZPoSbCBGd-15">
          <mxGeometry relative="1" as="geometry" />
        </mxCell>
        <mxCell id="S72kUEGjU9h2DheE2nI9-2" value="" style="edgeStyle=orthogonalEdgeStyle;rounded=0;orthogonalLoop=1;jettySize=auto;html=1;endArrow=blockThin;endFill=1;" edge="1" parent="WIyWlLk6GJQsqaUBKTNV-1" source="nxJLiq8hY2xZPoSbCBGd-19">
          <mxGeometry relative="1" as="geometry">
            <mxPoint x="220" y="651" as="targetPoint" />
          </mxGeometry>
        </mxCell>
        <mxCell id="nxJLiq8hY2xZPoSbCBGd-19" value="建模运算" style="swimlane;html=1;startSize=20;horizontal=1;childLayout=treeLayout;horizontalTree=0;resizable=0;containerType=tree;dashed=1;" parent="WIyWlLk6GJQsqaUBKTNV-1" vertex="1">
          <mxGeometry x="80" y="401" width="280" height="190" as="geometry" />
        </mxCell>
        <mxCell id="nxJLiq8hY2xZPoSbCBGd-20" value="知识图谱构建" style="whiteSpace=wrap;html=1;" parent="nxJLiq8hY2xZPoSbCBGd-19" vertex="1">
          <mxGeometry x="90" y="40" width="100" height="40" as="geometry" />
        </mxCell>
        <mxCell id="nxJLiq8hY2xZPoSbCBGd-21" value="时间序列" style="whiteSpace=wrap;html=1;" parent="nxJLiq8hY2xZPoSbCBGd-19" vertex="1">
          <mxGeometry x="20" y="130" width="100" height="40" as="geometry" />
        </mxCell>
        <mxCell id="nxJLiq8hY2xZPoSbCBGd-22" value="" style="edgeStyle=elbowEdgeStyle;elbow=vertical;html=1;rounded=0;" parent="nxJLiq8hY2xZPoSbCBGd-19" source="nxJLiq8hY2xZPoSbCBGd-20" target="nxJLiq8hY2xZPoSbCBGd-21" edge="1">
          <mxGeometry relative="1" as="geometry" />
        </mxCell>
        <mxCell id="nxJLiq8hY2xZPoSbCBGd-23" value="聚类算法" style="whiteSpace=wrap;html=1;" parent="nxJLiq8hY2xZPoSbCBGd-19" vertex="1">
          <mxGeometry x="160" y="130" width="100" height="40" as="geometry" />
        </mxCell>
        <mxCell id="nxJLiq8hY2xZPoSbCBGd-24" value="" style="edgeStyle=elbowEdgeStyle;elbow=vertical;html=1;rounded=0;" parent="nxJLiq8hY2xZPoSbCBGd-19" source="nxJLiq8hY2xZPoSbCBGd-20" target="nxJLiq8hY2xZPoSbCBGd-23" edge="1">
          <mxGeometry relative="1" as="geometry" />
        </mxCell>
        <mxCell id="S72kUEGjU9h2DheE2nI9-4" value="" style="endArrow=none;dashed=1;html=1;strokeWidth=2;" edge="1" parent="WIyWlLk6GJQsqaUBKTNV-1">
          <mxGeometry width="50" height="50" relative="1" as="geometry">
            <mxPoint x="40" y="230" as="sourcePoint" />
            <mxPoint x="400" y="230" as="targetPoint" />
          </mxGeometry>
        </mxCell>
        <mxCell id="S72kUEGjU9h2DheE2nI9-5" value="" style="endArrow=none;dashed=1;html=1;strokeWidth=2;" edge="1" parent="WIyWlLk6GJQsqaUBKTNV-1">
          <mxGeometry width="50" height="50" relative="1" as="geometry">
            <mxPoint x="40" y="621" as="sourcePoint" />
            <mxPoint x="400" y="621" as="targetPoint" />
          </mxGeometry>
        </mxCell>
        <mxCell id="S72kUEGjU9h2DheE2nI9-6" value="研究结论输出" style="rounded=1;whiteSpace=wrap;html=1;fontSize=12;glass=0;strokeWidth=1;shadow=0;" vertex="1" parent="WIyWlLk6GJQsqaUBKTNV-1">
          <mxGeometry x="160" y="650" width="120" height="40" as="geometry" />
        </mxCell>
      </root>
    </mxGraphModel>
  </diagram>
</mxfile>
